<svg version="1.1" viewBox="0 0 236 29.455" xmlns="http://www.w3.org/2000/svg" xmlns:xlink="http://www.w3.org/1999/xlink">
  <defs>
    <clipPath id="clipPath810">
      <path d="m0 0h1920v5016h-1920z"/>
    </clipPath>
    <clipPath id="clipPath850">
      <path d="m0 0h1920v5016h-1920z"/>
    </clipPath>
    <clipPath id="clipPath866">
      <path d="m0 0h1920v5016h-1920z"/>
    </clipPath>
    <clipPath id="clipPath882">
      <path d="m0 0h1920v5016h-1920z"/>
    </clipPath>
  </defs>
  <g transform="matrix(1.3333 0 0 -1.3333 -1782.7 293.83)">
    <g transform="translate(1381.2 214.56)">
      <path d="m0 0-2.463-10.974h-2.767l1.088 4.845h-4.045l-1.089-4.845h-2.766l2.463 10.974h2.767l-0.909-4.044h4.046l0.907 4.044z" fill="#fff"/>
    </g>
    <g clip-path="url(#clipPath810)">
      <g transform="translate(1390.6 208.83)">
        <path d="m0 0c0-0.776-0.127-1.501-0.38-2.18-0.254-0.676-0.61-1.259-1.069-1.744-0.478-0.506-1.033-0.896-1.664-1.169-0.631-0.272-1.368-0.409-2.21-0.409-1.199 0-2.12 0.296-2.76 0.885-0.641 0.589-0.961 1.404-0.961 2.446 0 0.735 0.119 1.434 0.358 2.098 0.24 0.663 0.593 1.248 1.062 1.753 0.454 0.495 1.012 0.887 1.674 1.173 0.663 0.287 1.405 0.431 2.228 0.431 1.204 0 2.126-0.29 2.763-0.873 0.639-0.58 0.959-1.384 0.959-2.411m-3.356-2.704c0.221 0.341 0.387 0.715 0.5 1.123 0.113 0.406 0.168 0.9 0.168 1.483 0 0.504-0.107 0.893-0.323 1.165-0.215 0.271-0.558 0.407-1.026 0.407-0.364 0-0.684-0.092-0.96-0.272-0.275-0.181-0.518-0.438-0.729-0.77-0.196-0.311-0.351-0.693-0.464-1.147-0.112-0.455-0.168-0.923-0.168-1.402 0-0.563 0.123-0.967 0.367-1.208 0.244-0.242 0.579-0.363 1.005-0.363 0.311 0 0.611 0.086 0.897 0.259 0.288 0.175 0.533 0.416 0.733 0.725" fill="#fff"/>
      </g>
      <g transform="translate(1395.5 203.36)">
        <path d="m0 0c-0.548 0-1.063 0.069-1.543 0.21-0.48 0.14-0.899 0.358-1.257 0.651-0.349 0.29-0.62 0.654-0.817 1.092-0.195 0.436-0.293 0.941-0.293 1.517 0 0.741 0.137 1.43 0.411 2.066 0.275 0.637 0.66 1.193 1.157 1.671 0.487 0.466 1.082 0.835 1.783 1.109 0.702 0.271 1.461 0.408 2.277 0.408 0.492 0 0.98-0.056 1.464-0.169s0.934-0.28 1.351-0.495l-0.545-2.264h-0.365c-0.282 0.352-0.6 0.612-0.956 0.783-0.354 0.174-0.755 0.259-1.199 0.259-0.812 0-1.462-0.298-1.955-0.891-0.491-0.594-0.736-1.334-0.736-2.222 0-0.615 0.152-1.076 0.455-1.381 0.303-0.304 0.774-0.457 1.414-0.457 0.496 0 0.948 0.104 1.356 0.313s0.758 0.442 1.049 0.697h0.365l-0.545-2.258c-0.515-0.229-0.967-0.393-1.356-0.492-0.388-0.098-0.894-0.147-1.515-0.147" fill="#fff"/>
      </g>
      <g transform="translate(1409.5 209.98)">
        <path d="m0 0c0-0.119-0.01-0.269-0.028-0.457-0.02-0.186-0.051-0.372-0.094-0.559l-1.211-5.385h-2.606l0.919 4.098c0.067 0.315 0.118 0.579 0.157 0.796 0.038 0.215 0.056 0.41 0.056 0.58 0 0.328-0.08 0.566-0.239 0.71-0.16 0.146-0.448 0.218-0.866 0.218-0.206 0-0.44-0.047-0.707-0.136-0.267-0.092-0.565-0.228-0.891-0.409l-1.318-5.857h-2.597l2.579 11.473h2.598l-0.926-4.116c0.525 0.359 1.007 0.639 1.446 0.839 0.439 0.203 0.92 0.304 1.445 0.304 0.73 0 1.294-0.185 1.689-0.549 0.396-0.366 0.594-0.882 0.594-1.55" fill="#fff"/>
      </g>
      <g transform="translate(1413.6 203.36)">
        <path d="m0 0c-0.688 0-1.353 0.065-1.998 0.199-0.646 0.132-1.139 0.286-1.485 0.462l0.497 2.177h0.237c0.104-0.093 0.238-0.196 0.398-0.309 0.161-0.114 0.388-0.231 0.685-0.352 0.254-0.114 0.549-0.209 0.883-0.29 0.336-0.082 0.697-0.122 1.085-0.122 0.578 0 1.012 0.07 1.303 0.208 0.289 0.137 0.434 0.332 0.434 0.589 0 0.197-0.103 0.346-0.309 0.447-0.206 0.106-0.633 0.232-1.279 0.385-1.099 0.26-1.848 0.574-2.254 0.941-0.405 0.369-0.607 0.827-0.607 1.379 0 0.931 0.406 1.667 1.219 2.204 0.812 0.538 1.911 0.806 3.298 0.806 0.602 0 1.204-0.063 1.806-0.189s1.044-0.26 1.327-0.401l-0.475-2.096h-0.223c-0.34 0.273-0.751 0.493-1.232 0.663-0.482 0.171-0.976 0.257-1.484 0.257-0.551 0-0.974-0.067-1.269-0.203-0.294-0.135-0.442-0.343-0.442-0.622 0-0.217 0.128-0.382 0.381-0.497 0.254-0.115 0.654-0.235 1.201-0.358 1.015-0.226 1.748-0.511 2.195-0.854s0.672-0.823 0.672-1.443c0-0.922-0.411-1.651-1.232-2.182-0.822-0.534-1.932-0.799-3.332-0.799" fill="#fff"/>
      </g>
      <g transform="translate(1423.4 203.36)">
        <path d="m0 0c-0.549 0-1.063 0.069-1.542 0.21-0.481 0.14-0.9 0.358-1.258 0.651-0.347 0.29-0.62 0.654-0.816 1.092-0.196 0.436-0.293 0.941-0.293 1.517 0 0.741 0.138 1.43 0.411 2.066 0.274 0.637 0.659 1.193 1.156 1.671 0.487 0.466 1.082 0.835 1.783 1.109 0.702 0.271 1.462 0.408 2.277 0.408 0.492 0 0.98-0.056 1.464-0.169s0.934-0.28 1.351-0.495l-0.545-2.264h-0.365c-0.282 0.352-0.601 0.612-0.956 0.783-0.355 0.174-0.755 0.259-1.199 0.259-0.811 0-1.462-0.298-1.954-0.891-0.492-0.594-0.738-1.334-0.738-2.222 0-0.615 0.152-1.076 0.455-1.381 0.303-0.304 0.775-0.457 1.415-0.457 0.496 0 0.948 0.104 1.356 0.313 0.409 0.209 0.758 0.442 1.049 0.697h0.365l-0.544-2.258c-0.515-0.229-0.967-0.393-1.357-0.492-0.388-0.098-0.894-0.147-1.515-0.147" fill="#fff"/>
      </g>
      <g transform="translate(1437.3 209.98)">
        <path d="m0 0c0-0.119-0.01-0.269-0.029-0.457-0.02-0.186-0.05-0.372-0.093-0.559l-1.212-5.385h-2.606l0.92 4.098c0.066 0.315 0.117 0.579 0.156 0.796 0.038 0.215 0.057 0.41 0.057 0.58 0 0.328-0.079 0.566-0.238 0.71-0.16 0.146-0.449 0.218-0.868 0.218-0.205 0-0.44-0.047-0.706-0.136-0.267-0.092-0.565-0.228-0.893-0.409l-1.316-5.857h-2.599l2.58 11.473h2.599l-0.927-4.116c0.526 0.359 1.008 0.639 1.447 0.839 0.439 0.203 0.921 0.304 1.445 0.304 0.73 0 1.292-0.185 1.689-0.549 0.396-0.366 0.594-0.882 0.594-1.55" fill="#fff"/>
      </g>
      <g transform="translate(1448.2 211.86)">
        <path d="m0 0-1.867-8.272h-2.597l0.207 0.914c-0.258-0.171-0.51-0.331-0.754-0.482-0.247-0.15-0.479-0.269-0.699-0.358-0.275-0.116-0.528-0.196-0.757-0.238-0.228-0.04-0.455-0.061-0.679-0.061-0.705 0-1.26 0.174-1.67 0.523-0.407 0.349-0.611 0.864-0.611 1.546 0 0.187 0.01 0.358 0.029 0.518 0.019 0.161 0.05 0.336 0.094 0.529l1.214 5.381h2.619l-0.936-4.096c-0.07-0.315-0.127-0.586-0.164-0.81-0.035-0.225-0.053-0.418-0.053-0.574 0-0.323 0.076-0.558 0.229-0.702 0.151-0.145 0.44-0.218 0.863-0.218 0.209 0 0.451 0.047 0.724 0.141 0.274 0.092 0.57 0.226 0.888 0.404l1.324 5.855z" fill="#fff"/>
      </g>
    </g>
    <g transform="translate(1454 215.06)">
      <path d="m0 0-2.581-11.474h-2.595l2.58 11.474z" fill="#fff"/>
    </g>
    <g clip-path="url(#clipPath850)">
      <g transform="translate(1460.3 208.78)">
        <path d="m0 0c0.014 0.089 0.025 0.169 0.033 0.243 6e-3 0.075 0.01 0.151 0.01 0.231 0 0.387-0.118 0.685-0.354 0.891-0.237 0.207-0.575 0.311-1.02 0.311-0.535 0-0.983-0.149-1.347-0.443-0.364-0.296-0.64-0.706-0.828-1.233zm-1.981-5.42c-1.375 0-2.434 0.314-3.183 0.937-0.747 0.625-1.12 1.486-1.12 2.586 0 0.753 0.121 1.442 0.366 2.071 0.244 0.629 0.596 1.183 1.055 1.659 0.44 0.461 0.991 0.827 1.652 1.097 0.66 0.271 1.386 0.405 2.176 0.405 1.202 0 2.107-0.248 2.717-0.748 0.611-0.499 0.916-1.234 0.916-2.209 0-0.335-0.032-0.66-0.098-0.981-0.064-0.319-0.15-0.636-0.255-0.951h-6.004v-0.168c0-0.571 0.197-1.019 0.591-1.341s0.997-0.483 1.81-0.483c0.567 0 1.104 0.098 1.61 0.295 0.507 0.195 0.948 0.413 1.324 0.655h0.288l-0.482-2.134c-0.503-0.227-1.032-0.398-1.587-0.513-0.556-0.118-1.147-0.177-1.776-0.177" fill="#fff"/>
      </g>
    </g>
    <g transform="translate(1478.7 203.58)">
      <path d="m0 0h-2.787l-0.246 2.251h-3.897l-1.251-2.251h-2.874l6.392 10.974h3.178zm-3.233 4.212-0.436 3.907-2.176-3.907z" fill="#fff"/>
    </g>
    <g clip-path="url(#clipPath866)">
      <g transform="translate(1485.8 207.49)">
        <path d="m0 0c-0.462-0.039-0.896-0.087-1.301-0.139-0.404-0.054-0.749-0.133-1.033-0.235-0.294-0.109-0.518-0.26-0.674-0.458-0.153-0.196-0.23-0.455-0.23-0.781 0-0.282 0.102-0.482 0.308-0.597 0.206-0.116 0.504-0.174 0.894-0.174 0.257 0 0.532 0.058 0.823 0.177 0.292 0.121 0.568 0.274 0.823 0.458zm-0.677-3.036c-0.163-0.109-0.36-0.238-0.59-0.392-0.23-0.152-0.443-0.271-0.641-0.361-0.269-0.113-0.52-0.199-0.756-0.259-0.235-0.058-0.561-0.087-0.979-0.087-0.672 0-1.22 0.192-1.644 0.579-0.426 0.387-0.638 0.889-0.638 1.508 0 0.656 0.151 1.21 0.45 1.666 0.303 0.454 0.749 0.818 1.341 1.087 0.555 0.256 1.215 0.441 1.983 0.554 0.766 0.113 1.596 0.197 2.489 0.25 5e-3 0.031 0.016 0.079 0.032 0.144 0.015 0.067 0.022 0.143 0.022 0.227 0 0.348-0.157 0.594-0.472 0.732-0.315 0.142-0.786 0.211-1.414 0.211-0.425 0-0.893-0.074-1.406-0.221-0.515-0.147-0.901-0.269-1.159-0.368h-0.236l0.379 1.958c0.302 0.078 0.768 0.167 1.398 0.265 0.631 0.098 1.26 0.147 1.886 0.147 1.261 0 2.188-0.169 2.779-0.507 0.589-0.34 0.884-0.866 0.884-1.579 0-0.098-8e-3 -0.227-0.025-0.382-0.017-0.157-0.039-0.297-0.068-0.415l-1.258-5.631h-2.552z" fill="#fff"/>
      </g>
    </g>
    <g transform="translate(1495 215.06)">
      <path d="m0 0-2.58-11.474h-2.596l2.58 11.474z" fill="#fff"/>
    </g>
    <g clip-path="url(#clipPath882)">
      <g transform="translate(1501.3 208.78)">
        <path d="m0 0c0.014 0.089 0.024 0.169 0.032 0.243 8e-3 0.075 0.011 0.151 0.011 0.231 0 0.387-0.118 0.685-0.354 0.891-0.236 0.207-0.577 0.311-1.019 0.311-0.535 0-0.984-0.149-1.348-0.443-0.364-0.296-0.64-0.706-0.828-1.233zm-1.981-5.42c-1.374 0-2.436 0.314-3.182 0.937-0.748 0.625-1.121 1.486-1.121 2.586 0 0.753 0.121 1.442 0.365 2.071 0.245 0.629 0.597 1.183 1.056 1.659 0.441 0.461 0.991 0.827 1.651 1.097 0.661 0.271 1.386 0.405 2.177 0.405 1.202 0 2.106-0.248 2.717-0.748 0.611-0.499 0.916-1.234 0.916-2.209 0-0.335-0.032-0.66-0.097-0.981-0.065-0.319-0.15-0.636-0.256-0.951h-6.003v-0.168c0-0.571 0.196-1.019 0.59-1.341 0.393-0.322 0.997-0.483 1.809-0.483 0.568 0 1.104 0.098 1.611 0.295 0.508 0.195 0.949 0.413 1.324 0.655h0.288l-0.481-2.134c-0.504-0.227-1.033-0.398-1.588-0.513-0.555-0.118-1.147-0.177-1.776-0.177" fill="#fff"/>
      </g>
      <g transform="translate(1514 209.98)">
        <path d="m0 0c0-0.148-0.01-0.306-0.028-0.48-0.02-0.171-0.051-0.349-0.093-0.536l-1.202-5.385h-2.599l0.901 4.098c0.067 0.304 0.118 0.564 0.156 0.78 0.037 0.216 0.057 0.419 0.057 0.603 0 0.32-0.077 0.552-0.236 0.701-0.158 0.146-0.446 0.22-0.865 0.22-0.206 0-0.44-0.047-0.709-0.136-0.266-0.092-0.566-0.228-0.9-0.409l-1.31-5.857h-2.599l1.862 8.273h2.598l-0.213-0.915c0.531 0.36 1.013 0.64 1.451 0.841 0.438 0.2 0.919 0.301 1.443 0.301 0.722 0 1.283-0.181 1.684-0.538s0.602-0.88 0.602-1.561" fill="#fff"/>
      </g>
      <g transform="translate(1351.2 214.5)">
        <path d="m0 0c0.931 0.517 2.306 0.526 3.139 0.021 0.87-0.526 0.878-1.441-0.056-2.049-0.979-0.638-2.541-0.651-3.406-0.029-0.827 0.596-0.648 1.516 0.323 2.057" fill="#fff"/>
      </g>
      <g transform="translate(1357 214.28)">
        <path d="m0 0c0.649 6e-3 1.217-0.317 1.271-0.729 0.055-0.427-0.456-0.788-1.146-0.795-0.689-5e-3 -1.262 0.349-1.275 0.776-0.015 0.415 0.501 0.743 1.15 0.748" fill="#fff"/>
      </g>
      <g transform="translate(1360 214.3)">
        <path d="m0 0c0.646 6e-3 1.253-0.315 1.359-0.726 0.108-0.425-0.358-0.786-1.044-0.794-0.688-4e-3 -1.303 0.349-1.37 0.775-0.065 0.413 0.408 0.741 1.055 0.745" fill="#fff"/>
      </g>
      <g transform="translate(1363 214.33)" fill="#fff">
        <path d="m0 0c0.645 6e-3 1.289-0.314 1.445-0.725 0.161-0.424-0.258-0.784-0.942-0.79-0.684-3e-3 -1.342 0.347-1.461 0.772-0.118 0.412 0.313 0.738 0.958 0.743"/>
        <path d="m0 0c0.645 6e-3 1.289-0.314 1.445-0.725 0.161-0.424-0.258-0.784-0.942-0.79-0.684-3e-3 -1.342 0.347-1.461 0.772-0.118 0.412 0.313 0.738 0.958 0.743"/>
        <path d="m0 0c0.645 6e-3 1.289-0.314 1.445-0.725 0.161-0.424-0.258-0.784-0.942-0.79-0.684-3e-3 -1.342 0.347-1.461 0.772-0.118 0.412 0.313 0.738 0.958 0.743"/>
      </g>
      <g transform="translate(1366.1 214.35)" fill="#fff">
        <path d="m0 0c0.641 5e-3 1.325-0.314 1.532-0.722 0.215-0.423-0.159-0.78-0.84-0.787-0.682-7e-3 -1.381 0.344-1.554 0.769-0.168 0.409 0.219 0.735 0.862 0.74"/>
        <path d="m0 0c0.641 5e-3 1.325-0.314 1.532-0.722 0.215-0.423-0.159-0.78-0.84-0.787-0.682-7e-3 -1.381 0.344-1.554 0.769-0.168 0.409 0.219 0.735 0.862 0.74"/>
        <path d="m0 0c0.641 5e-3 1.325-0.314 1.532-0.722 0.215-0.423-0.159-0.78-0.84-0.787-0.682-7e-3 -1.381 0.344-1.554 0.769-0.168 0.409 0.219 0.735 0.862 0.74"/>
      </g>
      <g transform="translate(1354.9 215.78)">
        <path d="m0 0c0.428 0.247 1.118 0.25 1.56 9e-3 0.451-0.246 0.486-0.66 0.06-0.928-0.436-0.271-1.17-0.278-1.624-9e-3 -0.443 0.259-0.434 0.676 4e-3 0.928" fill="#fff"/>
      </g>
      <g transform="translate(1356.8 216.89)">
        <path d="m0 0c0.387 0.224 1.043 0.227 1.482 9e-3 0.449-0.222 0.512-0.598 0.129-0.837-0.394-0.247-1.09-0.25-1.54-0.01-0.441 0.235-0.466 0.612-0.071 0.838" fill="#fff"/>
      </g>
      <g transform="translate(1358.5 217.9)" fill="#fff">
        <path d="m0 0c0.351 0.202 0.977 0.204 1.411 6e-3 0.442-0.202 0.531-0.541 0.183-0.758-0.355-0.223-1.016-0.226-1.463-8e-3 -0.437 0.213-0.49 0.554-0.131 0.76"/>
        <path d="m0 0c0.351 0.202 0.977 0.204 1.411 6e-3 0.442-0.202 0.531-0.541 0.183-0.758-0.355-0.223-1.016-0.226-1.463-8e-3 -0.437 0.213-0.49 0.554-0.131 0.76"/>
        <path d="m0 0c0.351 0.202 0.977 0.204 1.411 6e-3 0.442-0.202 0.531-0.541 0.183-0.758-0.355-0.223-1.016-0.226-1.463-8e-3 -0.437 0.213-0.49 0.554-0.131 0.76"/>
      </g>
      <g transform="translate(1360.2 218.82)" fill="#fff">
        <path d="m0 0c0.32 0.185 0.918 0.187 1.346 6e-3 0.436-0.184 0.545-0.493 0.229-0.691-0.322-0.201-0.953-0.204-1.394-7e-3 -0.432 0.195-0.508 0.505-0.181 0.692"/>
        <path d="m0 0c0.32 0.185 0.918 0.187 1.346 6e-3 0.436-0.184 0.545-0.493 0.229-0.691-0.322-0.201-0.953-0.204-1.394-7e-3 -0.432 0.195-0.508 0.505-0.181 0.692"/>
        <path d="m0 0c0.32 0.185 0.918 0.187 1.346 6e-3 0.436-0.184 0.545-0.493 0.229-0.691-0.322-0.201-0.953-0.204-1.394-7e-3 -0.432 0.195-0.508 0.505-0.181 0.692"/>
      </g>
      <g transform="translate(1351.8 215.98)">
        <path d="m0 0c0.048 0.337 0.564 0.606 1.154 0.609 0.589 4e-3 1.054-0.258 1.039-0.596-0.015-0.347-0.532-0.642-1.155-0.646-0.623-2e-3 -1.087 0.283-1.038 0.633" fill="#fff"/>
      </g>
      <g transform="translate(1352 217.47)">
        <path d="m0 0c0.041 0.293 0.521 0.529 1.073 0.532s0.988-0.228 0.974-0.523c-0.013-0.302-0.494-0.557-1.074-0.56-0.581-3e-3 -1.016 0.247-0.973 0.551" fill="#fff"/>
      </g>
      <g transform="translate(1352.2 218.79)" fill="#fff">
        <path d="m0 0c0.036 0.258 0.486 0.466 1.004 0.467 0.517 4e-3 0.928-0.2 0.916-0.458-0.012-0.267-0.462-0.49-1.004-0.493-0.544-1e-3 -0.954 0.218-0.916 0.484"/>
        <path d="m0 0c0.036 0.258 0.486 0.466 1.004 0.467 0.517 4e-3 0.928-0.2 0.916-0.458-0.012-0.267-0.462-0.49-1.004-0.493-0.544-1e-3 -0.954 0.218-0.916 0.484"/>
        <path d="m0 0c0.036 0.258 0.486 0.466 1.004 0.467 0.517 4e-3 0.928-0.2 0.916-0.458-0.012-0.267-0.462-0.49-1.004-0.493-0.544-1e-3 -0.954 0.218-0.916 0.484"/>
      </g>
      <g transform="translate(1352.3 219.95)" fill="#fff">
        <path d="m0 0c0.033 0.228 0.454 0.413 0.942 0.415 0.488 1e-3 0.875-0.18 0.865-0.409-0.01-0.235-0.433-0.431-0.944-0.433-0.509-3e-3 -0.897 0.191-0.863 0.427"/>
        <path d="m0 0c0.033 0.228 0.454 0.413 0.942 0.415 0.488 1e-3 0.875-0.18 0.865-0.409-0.01-0.235-0.433-0.431-0.944-0.433-0.509-3e-3 -0.897 0.191-0.863 0.427"/>
        <path d="m0 0c0.033 0.228 0.454 0.413 0.942 0.415 0.488 1e-3 0.875-0.18 0.865-0.409-0.01-0.235-0.433-0.431-0.944-0.433-0.509-3e-3 -0.897 0.191-0.863 0.427"/>
      </g>
      <g transform="translate(1353.7 210.42)">
        <path d="m0 0c-0.024-0.542-0.678-1.005-1.46-1.014-0.782-6e-3 -1.353 0.443-1.277 0.988 0.074 0.523 0.725 0.938 1.456 0.946 0.729 6e-3 1.304-0.398 1.281-0.92" fill="#fff"/>
      </g>
      <g transform="translate(1353.6 207.69)">
        <path d="m0 0c-0.028-0.654-0.75-1.214-1.612-1.225-0.861-9e-3 -1.483 0.536-1.391 1.191 0.089 0.63 0.807 1.128 1.607 1.138 0.799 8e-3 1.424-0.476 1.396-1.104" fill="#fff"/>
      </g>
      <g transform="translate(1353.5 204.36)" fill="#fff">
        <path d="m0 0c-0.034-0.806-0.84-1.497-1.8-1.51-0.958-0.014-1.642 0.658-1.528 1.466 0.109 0.772 0.909 1.381 1.792 1.392 0.882 0.01 1.57-0.579 1.536-1.348"/>
        <path d="m0 0c-0.034-0.806-0.84-1.497-1.8-1.51-0.958-0.014-1.642 0.658-1.528 1.466 0.109 0.772 0.909 1.381 1.792 1.392 0.882 0.01 1.57-0.579 1.536-1.348"/>
        <path d="m0 0c-0.034-0.806-0.84-1.497-1.8-1.51-0.958-0.014-1.642 0.658-1.528 1.466 0.109 0.772 0.909 1.381 1.792 1.392 0.882 0.01 1.57-0.579 1.536-1.348"/>
      </g>
      <g transform="translate(1353.3 200.19)" fill="#fff">
        <path d="m0 0c-0.044-1.016-0.958-1.895-2.039-1.913-1.083-0.018-1.84 0.834-1.697 1.855 0.137 0.968 1.043 1.73 2.029 1.744 0.985 0.014 1.75-0.721 1.707-1.686"/>
        <path d="m0 0c-0.044-1.016-0.958-1.895-2.039-1.913-1.083-0.018-1.84 0.834-1.697 1.855 0.137 0.968 1.043 1.73 2.029 1.744 0.985 0.014 1.75-0.721 1.707-1.686"/>
        <path d="m0 0c-0.044-1.016-0.958-1.895-2.039-1.913-1.083-0.018-1.84 0.834-1.697 1.855 0.137 0.968 1.043 1.73 2.029 1.744 0.985 0.014 1.75-0.721 1.707-1.686"/>
      </g>
      <g transform="translate(1349 214.8)">
        <path d="M 0,0 C -0.381,0.263 -0.268,0.682 0.235,0.935 0.726,1.182 1.422,1.187 1.806,0.943 2.199,0.696 2.131,0.279 1.636,0.011 1.13,-0.263 0.389,-0.268 0,0" fill="#fff"/>
      </g>
      <g transform="translate(1347.3 215.99)">
        <path d="m0 0c-0.344 0.239-0.209 0.616 0.288 0.847 0.485 0.224 1.149 0.228 1.499 6e-3 0.356-0.223 0.26-0.601-0.23-0.843-0.501-0.247-1.206-0.252-1.557-0.01" fill="#fff"/>
      </g>
      <g transform="translate(1345.7 217.06)" fill="#fff">
        <path d="m0 0c-0.312 0.214-0.158 0.56 0.331 0.769 0.479 0.203 1.114 0.208 1.432 7e-3 0.325-0.205 0.208-0.548-0.277-0.767-0.494-0.227-1.167-0.23-1.486-9e-3"/>
        <path d="m0 0c-0.312 0.214-0.158 0.56 0.331 0.769 0.479 0.203 1.114 0.208 1.432 7e-3 0.325-0.205 0.208-0.548-0.277-0.767-0.494-0.227-1.167-0.23-1.486-9e-3"/>
        <path d="m0 0c-0.312 0.214-0.158 0.56 0.331 0.769 0.479 0.203 1.114 0.208 1.432 7e-3 0.325-0.205 0.208-0.548-0.277-0.767-0.494-0.227-1.167-0.23-1.486-9e-3"/>
      </g>
      <g transform="translate(1344.3 218.04)" fill="#fff">
        <path d="m0 0c-0.286 0.196-0.116 0.511 0.365 0.703 0.471 0.187 1.08 0.189 1.37 4e-3 0.297-0.186 0.162-0.5-0.315-0.701-0.488-0.204-1.129-0.206-1.42-6e-3"/>
        <path d="m0 0c-0.286 0.196-0.116 0.511 0.365 0.703 0.471 0.187 1.08 0.189 1.37 4e-3 0.297-0.186 0.162-0.5-0.315-0.701-0.488-0.204-1.129-0.206-1.42-6e-3"/>
        <path d="m0 0c-0.286 0.196-0.116 0.511 0.365 0.703 0.471 0.187 1.08 0.189 1.37 4e-3 0.297-0.186 0.162-0.5-0.315-0.701-0.488-0.204-1.129-0.206-1.42-6e-3"/>
      </g>
      <g transform="translate(1356.7 212.05)">
        <path d="m0 0c0.529-0.334 0.578-0.9 0.083-1.268-0.509-0.374-1.373-0.382-1.905-0.015-0.517 0.357-0.505 0.925 4e-3 1.267 0.498 0.333 1.301 0.34 1.818 0.016" fill="#fff"/>
      </g>
      <g transform="translate(1359.3 210.41)">
        <path d="m0 0c0.597-0.376 0.707-1.016 0.22-1.431-0.501-0.427-1.419-0.436-2.023-0.021-0.587 0.406-0.629 1.047-0.121 1.434 0.493 0.376 1.343 0.385 1.924 0.018" fill="#fff"/>
      </g>
      <g transform="translate(1362.2 208.57)" fill="#fff">
        <path d="m0 0c0.677-0.428 0.869-1.156 0.396-1.63-0.488-0.489-1.469-0.5-2.159-0.024-0.669 0.461-0.783 1.192-0.284 1.633 0.484 0.426 1.388 0.436 2.047 0.021"/>
        <path d="m0 0c0.677-0.428 0.869-1.156 0.396-1.63-0.488-0.489-1.469-0.5-2.159-0.024-0.669 0.461-0.783 1.192-0.284 1.633 0.484 0.426 1.388 0.436 2.047 0.021"/>
        <path d="m0 0c0.677-0.428 0.869-1.156 0.396-1.63-0.488-0.489-1.469-0.5-2.159-0.024-0.669 0.461-0.783 1.192-0.284 1.633 0.484 0.426 1.388 0.436 2.047 0.021"/>
      </g>
      <g transform="translate(1365.6 206.44)" fill="#fff">
        <path d="m0 0c0.777-0.491 1.071-1.328 0.623-1.875-0.465-0.567-1.518-0.58-2.315-0.031-0.773 0.532-0.978 1.374-0.496 1.879 0.469 0.489 1.433 0.501 2.188 0.027"/>
        <path d="m0 0c0.777-0.491 1.071-1.328 0.623-1.875-0.465-0.567-1.518-0.58-2.315-0.031-0.773 0.532-0.978 1.374-0.496 1.879 0.469 0.489 1.433 0.501 2.188 0.027"/>
        <path d="m0 0c0.777-0.491 1.071-1.328 0.623-1.875-0.465-0.567-1.518-0.58-2.315-0.031-0.773 0.532-0.978 1.374-0.496 1.879 0.469 0.489 1.433 0.501 2.188 0.027"/>
      </g>
      <g transform="translate(1348 212.67)">
        <path d="m0 0c-0.698-6e-3 -1.15 0.351-1.013 0.782 0.132 0.418 0.769 0.75 1.425 0.755s1.115-0.318 1.024-0.735c-0.096-0.431-0.739-0.796-1.436-0.802" fill="#fff"/>
      </g>
      <g transform="translate(1344.8 212.65)">
        <path d="m0 0c-0.701-5e-3 -1.108 0.353-0.916 0.785 0.185 0.418 0.865 0.75 1.524 0.755 0.658 6e-3 1.078-0.32 0.934-0.736-0.149-0.432-0.841-0.798-1.542-0.804" fill="#fff"/>
      </g>
      <g transform="translate(1341.5 212.61)" fill="#fff">
        <path d="m0 0c-0.704-6e-3 -1.067 0.352-0.82 0.786 0.24 0.422 0.964 0.754 1.625 0.759 0.66 5e-3 1.04-0.321 0.842-0.739-0.204-0.433-0.944-0.801-1.647-0.806"/>
        <path d="m0 0c-0.704-6e-3 -1.067 0.352-0.82 0.786 0.24 0.422 0.964 0.754 1.625 0.759 0.66 5e-3 1.04-0.321 0.842-0.739-0.204-0.433-0.944-0.801-1.647-0.806"/>
        <path d="m0 0c-0.704-6e-3 -1.067 0.352-0.82 0.786 0.24 0.422 0.964 0.754 1.625 0.759 0.66 5e-3 1.04-0.321 0.842-0.739-0.204-0.433-0.944-0.801-1.647-0.806"/>
      </g>
      <g transform="translate(1338.1 212.59)" fill="#fff">
        <path d="m0 0c-0.706-6e-3 -1.025 0.355-0.721 0.789 0.293 0.422 1.063 0.757 1.725 0.761 0.665 5e-3 1.002-0.321 0.751-0.742-0.26-0.435-1.049-0.802-1.755-0.808"/>
        <path d="m0 0c-0.706-6e-3 -1.025 0.355-0.721 0.789 0.293 0.422 1.063 0.757 1.725 0.761 0.665 5e-3 1.002-0.321 0.751-0.742-0.26-0.435-1.049-0.802-1.755-0.808"/>
        <path d="m0 0c-0.706-6e-3 -1.025 0.355-0.721 0.789 0.293 0.422 1.063 0.757 1.725 0.761 0.665 5e-3 1.002-0.321 0.751-0.742-0.26-0.435-1.049-0.802-1.755-0.808"/>
      </g>
      <g transform="translate(1349.9 210.71)">
        <path d="m0 0c-0.605-0.378-1.477-0.388-1.92-0.019-0.433 0.362-0.279 0.932 0.32 1.279 0.584 0.335 1.393 0.344 1.833 0.014 0.449-0.334 0.356-0.905-0.233-1.274" fill="#fff"/>
      </g>
      <g transform="translate(1346.9 208.85)">
        <path d="m0 0c-0.69-0.432-1.624-0.442-2.054-0.021-0.418 0.409-0.185 1.058 0.493 1.449 0.662 0.382 1.524 0.391 1.955 0.021 0.441-0.381 0.277-1.028-0.394-1.449" fill="#fff"/>
      </g>
      <g transform="translate(1343.5 206.7)" fill="#fff">
        <path d="m0 0c-0.795-0.499-1.8-0.51-2.21-0.026-0.397 0.47-0.062 1.215 0.715 1.665 0.754 0.433 1.677 0.444 2.092 0.021 0.428-0.436 0.174-1.178-0.597-1.66"/>
        <path d="m0 0c-0.795-0.499-1.8-0.51-2.21-0.026-0.397 0.47-0.062 1.215 0.715 1.665 0.754 0.433 1.677 0.444 2.092 0.021 0.428-0.436 0.174-1.178-0.597-1.66"/>
        <path d="m0 0c-0.795-0.499-1.8-0.51-2.21-0.026-0.397 0.47-0.062 1.215 0.715 1.665 0.754 0.433 1.677 0.444 2.092 0.021 0.428-0.436 0.174-1.178-0.597-1.66"/>
      </g>
      <g transform="translate(1339.5 204.19)" fill="#fff">
        <path d="m0 0c-0.929-0.583-2.017-0.596-2.39-0.032-0.362 0.548 0.103 1.411 1.001 1.931 0.871 0.502 1.865 0.514 2.256 0.027 0.402-0.503 0.03-1.363-0.867-1.926"/>
        <path d="m0 0c-0.929-0.583-2.017-0.596-2.39-0.032-0.362 0.548 0.103 1.411 1.001 1.931 0.871 0.502 1.865 0.514 2.256 0.027 0.402-0.503 0.03-1.363-0.867-1.926"/>
        <path d="m0 0c-0.929-0.583-2.017-0.596-2.39-0.032-0.362 0.548 0.103 1.411 1.001 1.931 0.871 0.502 1.865 0.514 2.256 0.027 0.402-0.503 0.03-1.363-0.867-1.926"/>
      </g>
    </g>
  </g>
</svg>
