<svg viewBox="0 0 260.48 260.48" xmlns="http://www.w3.org/2000/svg"><path d="M172.23 243.706v12.604H88.207v-12.604c0-2.31 1.89-4.201 4.2-4.201h75.622c2.31 0 4.2 1.89 4.2 4.201" fill="#2281c4"/><path d="M138.617 222.773v16.805h-16.805v-33.987c2.774.252 5.546.377 8.403.377s5.63-.125 8.402-.377z" fill="#2281c4"/><path d="M130.218 21.045c51.045 0 92.425 41.38 92.425 92.426s-41.38 92.427-92.425 92.427-92.426-41.382-92.426-92.427 41.38-92.426 92.426-92.426" fill="#a1daf8"/><path d="M130.218 54.644c32.483 0 58.817 26.333 58.817 58.817s-26.334 58.816-58.817 58.816S71.4 145.945 71.4 113.461s26.334-58.817 58.818-58.817" fill="#fff"/><path d="M130.218 79.844c18.562 0 33.61 15.047 33.61 33.61s-15.048 33.61-33.61 33.61-33.61-15.048-33.61-33.61 15.047-33.61 33.61-33.61" fill="#2281c4"/><path d="M146.937 22.645c-.756 8.57-7.94 15.293-16.72 15.293-8.78 0-15.966-6.723-16.722-15.293-.041-.504-.084-1.008-.084-1.512 0-9.285 7.52-16.805 16.805-16.805s16.805 7.52 16.805 16.805c0 .504-.043 1.008-.084 1.512M151.217 46.244c6.975 0 12.604 5.63 12.604 12.604 0 1.975-.463 3.865-1.26 5.504-2.059 4.201-6.344 7.1-11.344 7.1a12.586 12.586 0 01-12.604-12.604c0-1.219.168-2.437.504-3.53a12.565 12.565 0 0112.1-9.074" fill="#00b0eb"/><path d="M176.43 252.106v-8.403c0-4.633-3.768-8.402-8.403-8.402H142.82v-8.508c55.973-2.217 100.83-48.417 100.83-104.924v-12.604h-16.99c-1.887-43.717-32.884-80.704-75.622-90.085C150.076 8.479 141.161.035 130.216.035c-10.943 0-19.858 8.444-20.817 19.145-42.737 9.38-73.734 46.368-75.624 90.085h-16.99v12.604c0 56.507 44.856 102.707 100.828 104.924v8.508H92.407c-4.635 0-8.403 3.77-8.403 8.402v8.403H-.02v8.402h260.474v-8.402zm58.817-130.237c0 51.872-41.088 94.312-92.427 96.523v-9.146c45.983-6.02 81.89-44.47 83.92-91.578h8.507zm-16.805-8.402c0 48.645-39.575 88.224-88.226 88.224-22.811 0-43.565-8.78-59.245-23.04l17.818-17.812c11.09 9.709 25.564 15.646 41.427 15.646a62.614 62.614 0 0029.807-7.516c8.324 5.003 14.87 7.516 19.705 7.516 2.823 0 5.07-.85 6.764-2.542 4.999-4.999 1.772-14.81-4.164-25.09 6.873-10.095 10.907-22.279 10.907-35.386a62.842 62.842 0 00-15.596-41.482l17.83-17.83c14.33 15.783 22.973 36.655 22.973 59.312M79.819 67.384c.545-.303 2.537-.277 6.293 1.138a64.453 64.453 0 00-5.017 5.55c-1.407-3.382-1.815-5.692-1.276-6.688m54.61-8.37c.092 9.194 7.579 16.642 16.788 16.642 4.844 0 9.184-2.092 12.256-5.386.752.58 1.558 1.104 2.276 1.72l-11.965 11.964c-6.474-5.181-14.657-8.298-23.573-8.298-4.596 0-8.981.866-13.061 2.374-4.983-3.886-10.33-7.742-15.582-10.978 8.34-5.163 18.132-8.201 28.643-8.201 1.404 0 2.816.054 4.218.164m8.386-.164c0-4.633 3.769-8.401 8.402-8.401 4.635 0 8.402 3.768 8.402 8.4 0 4.635-3.767 8.403-8.402 8.403-4.633 0-8.402-3.768-8.402-8.402m37.79 109.101c-1.55.865-6.034-.428-12.708-4.092a63.458 63.458 0 008.763-7.949c3.692 6.924 4.524 10.949 3.944 12.041m-20.493-8.834c-4.415-2.912-9.41-6.559-14.876-10.97a37.993 37.993 0 0016.603-14.02c4.277 5.378 7.684 10.13 10.344 14.23a55.036 55.036 0 01-12.07 10.76m-29.901-75.06c16.217 0 29.408 13.196 29.408 29.409 0 13.615-9.314 25.064-21.896 28.4-5.163-4.492-10.645-9.583-16.384-15.322-7.554-7.553-13.974-14.658-19.377-21.166 3.526-12.292 14.844-21.32 28.249-21.32m-14.813 48.422a345.681 345.681 0 0010.469 10.037c-12.93-1.928-23.123-12.276-24.795-25.283a332.406 332.406 0 0014.326 15.246m-8.76 10.5c6.475 5.18 14.658 8.297 23.573 8.297 1.756 0 3.47-.164 5.164-.395 5.668 4.785 11.2 9.083 16.426 12.73a54.26 54.26 0 01-21.59 4.47c-13.55 0-25.934-4.988-35.487-13.184zm59.275-17.17c1.345-3.88 2.109-8.016 2.109-12.344 0-8.915-3.117-17.104-8.297-23.573l11.914-11.914c8.381 9.771 13.188 22.254 13.188 35.487 0 10.023-2.76 19.393-7.495 27.475-3.71-5.448-7.777-10.696-11.42-15.132m-57.034-43.533a38.038 38.038 0 00-13.002 15.447c-4.433-5.809-7.928-10.985-10.504-15.354a54.816 54.816 0 018.87-9.894c3.944 2.248 8.783 5.402 14.636 9.8m-28.233 8.4c3.366 5.28 7.534 10.978 12.268 16.867-.306 1.937-.512 3.902-.512 5.924 0 8.915 3.117 17.103 8.297 23.572l-11.914 11.915c-8.201-9.553-13.188-21.938-13.188-35.487 0-8.141 1.84-15.843 5.05-22.792M130.21 8.437c6.95 0 12.604 5.655 12.604 12.604 0 6.948-5.655 12.604-12.604 12.604-6.948 0-12.604-5.656-12.604-12.604 0-6.95 5.656-12.604 12.604-12.604m-19.862 19.137c2.768 8.372 10.574 14.473 19.862 14.473 9.289 0 17.095-6.101 19.863-14.473a87.628 87.628 0 0139.458 20.632L171.694 66.04a64.373 64.373 0 00-4.159-3.336c.294-1.244.487-2.521.487-3.853 0-9.268-7.537-16.804-16.805-16.804-6.334 0-11.797 3.567-14.662 8.759-2.108-.21-4.23-.356-6.344-.356-13.788 0-26.517 4.502-36.903 12.043-8.15-3.869-15.317-5.154-19.368-1.1-3.873 3.87-3.26 10.684 1.752 20.61-5.373 9.274-8.498 19.999-8.498 31.464 0 15.863 5.936 30.336 15.649 41.428l-17.817 17.813c-14.258-15.674-23.04-36.429-23.04-59.241 0-41.286 28.534-76.738 68.363-85.893M25.182 121.87v-4.201h8.507c2.03 47.108 37.937 85.558 83.918 91.578v9.146c-51.337-2.21-92.425-44.65-92.425-96.523m100.828 88.12c1.396.06 2.794.105 4.2.105a99.83 99.83 0 004.202-.104V235.3h-8.402zM92.4 243.704h75.621v8.403h-75.62z" fill="#134094"/></svg>