<svg version="1.1" viewBox="0 0 58.667 58.597" xmlns="http://www.w3.org/2000/svg" xmlns:xlink="http://www.w3.org/1999/xlink">
  <defs>
    <clipPath id="clipPath774">
      <path d="m0 0h1920v5016h-1920z"/>
    </clipPath>
  </defs>
  <g transform="matrix(1.3333 0 0 -1.3333 -1689.3 308.4)">
    <g clip-path="url(#clipPath774)">
      <g transform="translate(1311 187.35)">
        <path d="m0 0c-6.709 3.022-14.154 4.706-21.993 4.706s-15.29-1.684-22-4.706v43.948h44z" fill="#134094"/>
      </g>
      <g transform="translate(1272.3 217.98)">
        <path d="m0 0c-2.068 0-2.236-2.092-2.236-2.092h-0.989v3.099h7.698s0.064-2.395-2.215-4.937c0 0-2.166-2.515-2.223-3.614h1.249c1.792 0 1.976 2.092 1.976 2.092h1.03v-3.106h-7.867s-0.29 2.352 2.442 5.212c0 0 1.678 1.874 2.067 3.353z" fill="#fff"/>
      </g>
      <g transform="translate(1291.9 209.43)">
        <path d="m0 0v1.014h-0.233c-0.423 0-0.769 0.346-0.769 0.769v5.994c0 0.423 0.346 0.767 0.769 0.767h0.233v1.015h-5.102v-1.015h0.233c0.431 0 0.777-0.344 0.777-0.767v-5.994c0-0.423-0.346-0.769-0.777-0.769h-0.233v-1.014z" fill="#fff"/>
      </g>
      <g transform="translate(1285.7 209.43)">
        <path d="m0 0v3.106h-1.03s-0.19-2.093-1.983-2.093h-1.03v3.262h0.366c0.431 0 0.777-0.345 0.777-0.775v-0.387h1.016v3.346h-1.016v-0.387c0-0.43-0.346-0.776-0.777-0.776h-0.366v3.262h1.03c1.793 0 1.983-2.092 1.983-2.092h1.03v3.106h-8.115v-1.021h0.234c0.423 0 0.769-0.345 0.769-0.768v-5.994c0-0.423-0.346-0.768-0.769-0.768h-0.234v-1.015z" fill="#fff"/>
      </g>
      <g transform="translate(1297.2 217.98)">
        <path d="m0 0c2.068 0 2.23-2.092 2.23-2.092h0.995v3.099h-7.36s-1.164-1.521 1.877-4.937c0 0 2.159-2.515 2.215-3.614h-1.241c-1.792 0-1.983 2.092-1.983 2.092h-1.03v-3.106h7.416s1.348 1.451-1.99 5.212c0 0-1.75 1.797-2.067 3.353z" fill="#fff"/>
      </g>
      <g transform="translate(1305.9 217.98)">
        <path d="m0 0c2.06 0 2.229-2.092 2.229-2.092h0.989v3.099h-7.353s-1.165-1.521 1.876-4.937c0 0 2.16-2.515 2.217-3.614h-1.243c-1.792 0-1.982 2.092-1.982 2.092h-1.031v-3.106h7.416s1.348 1.451-1.989 5.212c0 0-1.75 1.797-2.068 3.353z" fill="#fff"/>
      </g>
    </g>
  </g>
</svg>
