<svg viewBox="0 0 183 95.574" xmlns="http://www.w3.org/2000/svg"><path d="M152 4.97c0-.844 2.225-1.32 6.685-1.431 4.46-.107 9.66.099 15.6.617 5.938.52 8.833 1.656 8.678 3.407-.192 2.208-2.484 20.497-6.872 54.868-.242 1.896-1.764 3.49-4.562 4.78s-6.635 1.72-11.507 1.294c-6.625-.578-9.933-2.672-9.925-6.277zm22.793 81.513c-.34 3.883-1.812 6.459-4.418 7.727s-6.134 1.708-10.589 1.319c-4.454-.391-7.804-1.355-10.047-2.894-2.244-1.537-3.183-4.4-2.818-8.589.602-6.852 5.545-9.873 14.836-9.06 9.289.812 13.634 4.646 13.036 11.497" class="exclamation-mark"/><path d="M10.177 42.969c-2.128.224-4.238-2.111-6.327-7C1.76 31.077.472 26.313-.015 21.677c-.112-1.065.94-2.385 3.157-3.962 2.217-1.58 5.665-3.134 10.347-4.662 4.682-1.529 9.834-2.589 15.46-3.18 21.819-2.293 33.525 4.162 35.124 19.364.454 4.332-.044 8.169-1.5 11.512-1.455 3.34-3.36 5.866-5.717 7.574-4.799 3.347-9.322 5.283-13.57 5.807l-2.611.389c.088.837.417 2.147.99 3.93.57 1.786.928 3.362 1.074 4.73.126 1.216-1.847 2.364-5.923 3.446-4.075 1.082-7.632 1.782-10.673 2.102-4.637.486-7.627-.352-8.968-2.516-1.342-2.164-2.401-6.934-3.177-14.307-.183-1.748 2.95-3.384 9.4-4.906 2.393-.636 4.532-1.668 6.42-3.096 1.886-1.428 2.717-3.205 2.493-5.335-.224-2.126-2.045-3.012-5.467-2.653-3.421.36-6.92 1.612-10.5 3.755-3.578 2.145-5.635 3.244-6.167 3.3m21.163 29.13c5.168-.543 9.192-.294 12.068.75 2.876 1.043 4.534 3.653 4.973 7.835.72 6.84-4.241 10.82-14.885 11.938-10.641 1.119-16.323-1.743-17.042-8.584-.72-6.84 4.242-10.82 14.886-11.94" class="question-mark"/><path d="M104.908 50.168c2.15 0 3.998-.186 5.546-.558a11.381 11.381 0 004.216-1.979c2.61-1.892 3.913-5.418 3.913-10.578 0-4.588-1.332-7.87-4-9.847-2.493-1.834-5.72-2.752-9.675-2.752-1.692 0-3.14.078-4.344.235-1.204.159-2.43.496-3.677 1.012s-2.251 1.217-3.011 2.107-1.384 2.113-1.87 3.676c-.489 1.562-.733 3.42-.733 5.569 0 4.358 1.234 7.633 3.7 9.826 2.466 2.192 5.777 3.29 9.935 3.29m6.396 18.768l-5.18 20.36c-.812 3.056-4.09 4.078-9.835 3.065-4.225-.744-7.377-1.983-9.456-3.708-2.077-1.73-3.003-3.424-2.778-5.086l2.77-19.73c-4.67-2.263-8.505-5.29-11.503-9.08-5.368-6.783-7.059-15.8-5.076-27.052.98-5.55 2.454-10.231 4.424-14.043 1.969-3.814 4.137-6.692 6.505-8.641 2.365-1.95 5.276-3.306 8.73-4.071C93.361.187 96.68-.124 99.86.016c3.181.142 6.956.596 11.324 1.367 10.215 1.801 18.126 5.637 23.73 11.51 5.985 6.321 7.931 15.403 5.843 27.245-2.35 13.322-7.323 21.833-14.92 25.53-3.688 1.87-7.616 2.932-11.784 3.19a45.18 45.18 0 01-2.75.08" class="lense"/></svg>