<svg viewBox="0 0 74.52 67.069" xmlns="http://www.w3.org/2000/svg"><path d="M74.473 28.753C75.165 8.907 67.637.83 45.713.063 33.47-.365 10.25 1.085 3.457 12.04.934 16.109.182 21.323.02 25.955c-.161 4.618.588 9.04 1.106 13.613 1.92 16.967 9.66 26.766 29.275 27.452 16.527.578 35.946-4.153 41.57-20.262 1.998-5.721 2.294-12.029 2.502-18.005" fill="#009ee3"/><path d="M52.505 8.784c-.001-.23.61-.361 1.83-.39s2.642.026 4.267.168c1.624.142 2.416.453 2.373.932-.052.604-.678 5.608-1.88 15.01-.066.519-.482.956-1.248 1.308-.765.353-1.814.47-3.148.355-1.811-.16-2.717-.731-2.714-1.718zm6.236 22.301c-.094 1.061-.496 1.767-1.21 2.113-.712.347-1.677.468-2.896.362s-2.135-.37-2.749-.792-.87-1.204-.77-2.35c.164-1.874 1.517-2.7 4.058-2.478 2.541.221 3.73 1.27 3.567 3.145M13.705 19.201c-.583.062-1.159-.577-1.73-1.914-.573-1.339-.925-2.643-1.058-3.91-.03-.291.257-.653.864-1.085.605-.432 1.55-.857 2.83-1.274 1.28-.419 2.691-.71 4.23-.871 5.97-.627 9.172 1.139 9.609 5.297.124 1.185-.012 2.236-.41 3.15-.4.914-.92 1.605-1.565 2.073-1.313.914-2.55 1.445-3.712 1.588l-.714.106c.024.23.114.587.27 1.076.156.488.255.919.294 1.294.034.332-.506.646-1.62.942s-2.088.488-2.92.575c-1.268.133-2.087-.096-2.453-.688s-.658-1.897-.87-3.913c-.049-.479.807-.927 2.572-1.343a5.019 5.019 0 001.756-.847c.516-.392.744-.877.683-1.46s-.56-.824-1.496-.726c-.936.098-1.893.441-2.873 1.028-.979.586-1.542.886-1.687.902m5.79 7.97c1.414-.148 2.514-.08 3.302.205.786.285 1.24 1 1.36 2.144.197 1.87-1.16 2.96-4.072 3.265-2.912.307-4.467-.476-4.663-2.348-.197-1.872 1.16-2.96 4.072-3.266m20.13-5.991c.588 0 1.094-.05 1.518-.153a3.089 3.089 0 001.153-.542c.713-.517 1.07-1.48 1.07-2.893 0-1.255-.363-2.153-1.094-2.694-.681-.502-1.564-.752-2.647-.752-.462 0-.858.02-1.188.064a4.032 4.032 0 00-1.006.277c-.342.14-.616.332-.824.576-.207.243-.378.577-.51 1.005s-.202.936-.202 1.524c0 1.192.337 2.088 1.013 2.688.675.6 1.58.9 2.717.9m1.75 5.135l-1.416 5.57c-.223.836-1.119 1.115-2.69.839-1.157-.204-2.02-.543-2.589-1.015-.568-.473-.821-.937-.76-1.392l.759-5.397c-1.279-.62-2.327-1.448-3.148-2.484-1.468-1.856-1.93-4.323-1.388-7.401.268-1.519.67-2.799 1.21-3.843.54-1.042 1.131-1.83 1.78-2.362.647-.535 1.443-.906 2.388-1.115s1.854-.293 2.723-.256c.87.039 1.904.164 3.099.375 2.794.492 4.958 1.542 6.492 3.149 1.637 1.73 2.169 4.213 1.598 7.453-.643 3.645-2.004 5.973-4.082 6.984a8.156 8.156 0 01-3.223.873c-.243.015-.493.022-.753.022" fill="#fff"/><path d="M26.325 54.028c-.502.44-1.219.83-2.152 1.174-.932.342-2.154.58-3.663.712s-2.953.132-4.333 0c-1.379-.131-2.376-.323-2.992-.575s-.937-.52-.961-.807c-.088-1-.036-2.053.154-3.157.192-1.107.484-1.676.876-1.71.072-.006.835.17 2.288.529s2.536.506 3.25.444 1.173-.179 1.374-.35.29-.398.264-.684c-.025-.286-.244-.524-.656-.712-.413-.189-.921-.342-1.525-.46-.604-.118-1.264-.308-1.98-.569s-1.385-.563-2.01-.904-1.163-.857-1.62-1.545c-.455-.69-.725-1.499-.806-2.427-.347-3.965 1.847-6.154 6.579-6.568 1.769-.154 3.305-.177 4.61-.065 1.305.11 2.235.281 2.785.512s.839.48.862.748c.081.928-.05 1.948-.394 3.057s-.72 1.683-1.132 1.719c-.07.007-.31-.053-.717-.18-1.224-.415-2.225-.588-3.001-.52-.777.067-1.297.185-1.563.352-.264.167-.382.397-.357.692s.244.519.653.672.91.28 1.504.381 1.248.278 1.963.53a11.55 11.55 0 012.012.931c.626.368 1.169.92 1.629 1.652.46.735.735 1.61.824 2.628a5.357 5.357 0 01-.575 2.992 5.13 5.13 0 01-1.19 1.508m11.622 1.09c0 .289-.58.501-1.741.636-1.161.136-2.264.202-3.308.202s-1.719-.066-2.025-.202c-.306-.135-.459-.347-.459-.636V36.776c0-.502.235-.86.701-1.071.47-.212 1.35-.319 2.647-.319h10.017c.379 0 .567.73.567 2.185s-.086 2.566-.256 3.327c-.171.763-.392 1.143-.662 1.143l-5.48-.29v1.968c2.394-.116 3.995-.173 4.806-.173.269 0 .454.153.553.463.099.308.148.901.148 1.778s-.09 1.718-.27 2.518c-.18.8-.431 1.2-.755 1.2l-4.483-.174zm23.543-12.62c-.027.321-.566 1.021-1.614 2.099-1.048 1.078-2.605 2.525-4.672 4.342l5.653.495c.196.017.339.295.427.833s.09 1.286.007 2.242c-.084.954-.27 1.789-.556 2.5-.288.714-.62 1.054-.995 1.02l-13.046-1.14c-.52-.047-.844-.596-.976-1.652-.134-1.055-.146-2.19-.04-3.404.024-.268.588-.956 1.692-2.066 1.105-1.109 2.76-2.646 4.966-4.613L47.14 42.7c-.483-.042-.656-.84-.52-2.393.095-1.09.301-2.11.619-3.064s.654-1.413 1.012-1.382L60.6 36.94c.91.08 1.208 1.932.89 5.557" fill="#134094"/></svg>