<svg viewBox="0 0 220.61 274.56" xmlns="http://www.w3.org/2000/svg"><path d="M113.838 184.42H7.28a3.278 3.278 0 01-3.278-3.277v-12.51a3.278 3.278 0 013.278-3.278h106.558a3.277 3.277 0 013.277 3.277v12.51a3.277 3.277 0 01-3.277 3.278" fill="#d3ddf2"/><path d="M58.32 97.622V83.971a3.277 3.277 0 013.276-3.278h44.613V100.9H61.596a3.277 3.277 0 01-3.277-3.278M109.691 148.954h13.665a3.277 3.277 0 003.277-3.277v-44.579h-20.22v44.58a3.278 3.278 0 003.278 3.276" fill="#d4edfc"/><path d="M159.983 18.958l28.25 28.25-61.92 61.92-28.25-28.25z" fill="#a1daf8"/><path d="M160.063 18.958l-8.044 8.038c11.166 11.157 11.166 29.255 0 40.412l-33.688 33.665 8.044 8.038 61.952-61.909z" fill="#5bc5f2"/><path d="M84.878 132.021l-9.66-9.654a3.278 3.278 0 010-4.637l22.819-22.805 14.298 14.289-22.823 22.807a3.278 3.278 0 01-4.634 0" fill="#a1daf8"/><path d="M89.478 86.423l31.42 31.397a3.828 3.828 0 005.409 0l13.234-13.225a3.822 3.822 0 000-5.406l-31.42-31.397a3.827 3.827 0 00-5.41 0L89.478 81.017a3.82 3.82 0 000 5.406" fill="#d3ddf2"/><path d="M139.544 99.089l-31.42-31.398a3.828 3.828 0 00-5.409 0l-5.34 5.336L115.562 91.2c5.853 5.848 5.853 15.335 0 21.183l5.338 5.336a3.83 3.83 0 005.41 0l13.234-13.225a3.82 3.82 0 000-5.405z" fill="#a4bde3"/><path d="M202.236 35.49L171.84 5.115c-1.582-1.581-4.25-1.148-5.25.852l-6.53 13.052 28.263 28.245 13.06-6.527c2.002-1 2.435-3.665.853-5.247" fill="#a1daf8"/><path d="M202.236 35.49L171.84 5.117c-1.582-1.583-4.249-1.15-5.25.852l-3.328 6.65 21.04 21.025c2.49 2.49 1.809 6.688-1.34 8.261l5.36 5.359 13.062-6.526c2-1 2.433-3.666.852-5.248" fill="#5bc5f2"/><path d="M49.146 184.42c14.88 28.22 44.54 47.507 78.617 47.507 48.96 0 88.796-39.807 88.796-88.734 0-23.017-8.814-44.012-23.246-59.8-8.682-9.495-19.393-17.102-31.442-22.126l-10.88 19.173c10.956 4.052 20.563 10.888 27.957 19.648 9.83 11.64 15.753 26.684 15.753 43.105 0 36.94-29.973 66.893-66.938 66.893-21.405 0-40.465-10.042-52.716-25.666z" fill="#a1daf8"/><path d="M111.678 210.02c2.718 0 5.398-.167 8.033-.482-18.094-2.17-33.97-11.55-44.66-25.183H58.963c12.25 15.623 31.31 25.664 52.715 25.664M193.316 83.356c-8.683-9.496-19.393-17.104-31.442-22.126l-3.633 6.401a89.376 89.376 0 0118.987 15.725c14.432 15.786 23.246 36.783 23.246 59.798 0 46.206-35.527 84.27-80.715 88.365 2.64.236 5.308.37 8.006.37 48.96 0 88.797-39.806 88.797-88.735-.001-23.015-8.815-44.012-23.246-59.798" fill="#5bc5f2"/><path d="M113.838 165.354H97.75a3.277 3.277 0 013.277 3.277v12.51a3.277 3.277 0 01-3.277 3.278h16.088a3.277 3.277 0 003.277-3.277v-12.51a3.278 3.278 0 00-3.277-3.278" fill="#a4bde3"/><path d="M172.303 58.557c11.77 0 21.311 9.534 21.311 21.296 0 11.761-9.54 21.297-21.311 21.297s-21.312-9.536-21.312-21.297c0-11.762 9.542-21.296 21.312-21.296" fill="#d3ddf2"/><path d="M172.303 58.557c-2.847 0-5.561.56-8.044 1.574 7.781 3.173 13.268 10.805 13.268 19.722 0 8.916-5.487 16.55-13.268 19.723a21.26 21.26 0 008.044 1.574c11.77 0 21.311-9.536 21.311-21.297 0-11.762-9.542-21.296-21.311-21.296" fill="#a4bde3"/><path d="M84.465 238.419l35.88-33.235a10.933 10.933 0 0114.858 0l35.879 33.235z" fill="#d3ddf2"/><path d="M135.197 205.22a10.935 10.935 0 00-14.86 0l-.613.569 35.263 32.666h16.088z" fill="#a4bde3"/><path d="M210.329 270.685H45.199a2.682 2.682 0 01-2.68-2.682v-13.149c0-9.05 7.336-16.387 16.387-16.387h137.716c9.05 0 16.388 7.337 16.388 16.387v13.15a2.682 2.682 0 01-2.681 2.68" fill="#a1daf8"/><path d="M196.622 238.419h-16.087c9.05 0 16.387 7.337 16.387 16.387v13.15c0 1.48-1.2 2.68-2.68 2.68h16.087a2.682 2.682 0 002.68-2.68v-13.15c0-9.05-7.336-16.387-16.387-16.387" fill="#5bc5f2"/><g><path d="M196.622 234.419H172.65l-7.086-6.563c15.127-6.745 28.125-17.365 37.849-31.006 11.234-15.76 17.171-34.327 17.171-53.694 0-22.549-8.174-44.178-23.055-61.123.064-.733.104-1.473.104-2.222 0-9.77-5.57-18.261-13.701-22.48l6.774-6.772 12.479-6.234a7.32 7.32 0 003.942-5.36 7.319 7.319 0 00-2.045-6.33L174.687 2.259a7.33 7.33 0 00-6.332-2.042 7.323 7.323 0 00-5.358 3.94l-6.242 12.474-47.204 47.168c-3.024-1.875-7.056-1.508-9.678 1.113l-11.73 11.723H61.598a7.306 7.306 0 00-7.298 7.298v13.653c0 4.024 3.273 7.297 7.298 7.297h20.805l-10.025 10.019c-2.825 2.79-2.83 7.525 0 10.326l9.66 9.655c2.846 2.844 7.475 2.844 10.32 0l10.032-10.025v20.786c0 4.026 3.276 7.304 7.304 7.304h13.664c4.024 0 7.297-3.278 7.297-7.304v-26.518l11.73-11.721a7.794 7.794 0 002.3-5.548 7.772 7.772 0 00-1.181-4.127l6.301-6.296c4.221 8.127 12.717 13.695 22.494 13.695a25.42 25.42 0 005.161-.53 62.89 62.89 0 0113.223 38.557 4.022 4.022 0 008.044 0 70.955 70.955 0 00-13.49-41.591c4.07-2.425 7.4-5.96 9.582-10.181 11.469 14.802 17.722 32.935 17.722 51.772 0 34.603-21.38 65.923-53.447 78.707l-11.467-10.622c23.071-6.75 41.625-25.093 48.349-48.475a4.022 4.022 0 00-7.73-2.223c-6.42 22.33-25.01 39.474-47.665 44.173l-2.654-2.46c-5.699-5.279-14.626-5.279-20.325 0l-2.656 2.46a62.7 62.7 0 01-30.867-16.312h29.752c4.024 0 7.299-3.275 7.299-7.3v-12.51c0-4.024-3.275-7.299-7.299-7.299H41.55c-2.221 0-4.021 1.8-4.021 4.022s1.8 4.022 4.02 4.022h71.54v11.021H8.02v-11.02H22.78a4.023 4.023 0 000-8.045H7.275c-4.025 0-7.3 3.275-7.3 7.299v12.51c0 4.025 3.275 7.3 7.3 7.3H46.76c9.835 17.528 24.958 31.317 43.2 39.459l-7.078 6.556H58.908c-11.253 0-20.408 9.156-20.408 20.41v13.149a6.71 6.71 0 006.702 6.703h165.13a6.71 6.71 0 006.702-6.703v-13.149c0-11.254-9.155-20.41-20.409-20.41zM169.728 8.678l28.936 28.914-9.544 4.769-24.162-24.146zM62.344 96.84V84.679H84.41a7.78 7.78 0 002.23 4.554l5.714 5.71-1.9 1.898zm41.282 15.413c-.036.035-.072.07-.107.107L87.2 128.668l-8.607-8.602 19.45-19.438 8.608 8.602zm18.988 32.651h-12.179V116.82l1.905-1.903 5.718 5.714a7.8 7.8 0 004.556 2.221zm.991-30.102L92.466 83.685l12.955-12.943 31.138 31.116zm23.363-34.991c0 .987.062 1.959.173 2.916l-9.175 9.166-22.574-22.559 44.671-44.639 22.573 22.557-7.416 7.413a25.438 25.438 0 00-2.92-.172c-13.969 0-25.332 11.357-25.332 25.318M172.3 97.086c-8.314 0-15.277-5.896-16.92-13.723a17.26 17.26 0 01-.37-3.55c.001-9.527 7.757-17.277 17.29-17.277 9.535 0 17.29 7.75 17.29 17.276 0 9.525-7.757 17.274-17.29 17.274m-49.232 111.072c2.635-2.438 6.76-2.438 9.393 0l22.977 21.284.017.016 5.359 4.962H94.717zm-66.94-19.754h17c9.115 10.982 21.214 18.904 34.769 22.845l-11.461 10.615a84.84 84.84 0 01-40.309-33.46m152.863 78.234H46.54v-11.809c0-6.818 5.549-12.365 12.367-12.365h137.717c6.818 0 12.366 5.547 12.366 12.365z" fill="#134094"/></g></svg>