<svg viewBox="0 0 248.64 248.71" xmlns="http://www.w3.org/2000/svg"><path d="M168.624 189.986l-15.2-10.134h-58.27l-15.198 10.134c3.413 7.6 8.715 14.757 15.315 20.32l-.117.138v33.505h58.27v-33.505l-.116-.137c6.6-5.564 11.903-12.721 15.316-20.32" fill="#a1daf8"/><path d="M224.356 102.122h19.423a55.558 55.558 0 00-37.43-44.85l-11.128-3.71 19.423-4.855 9.712-4.856-6.372-5.1a65.362 65.362 0 00-40.842-14.323h-1.345c7.027-3.516 12.397-7.848 19.424-11.363-13.592-10.873-45.47-14.063-70.896 11.363C98.768-1.13 66.103 2.488 53.43 12.628c7.026 3.516 12.397 8.284 19.423 11.8h-1.345A65.37 65.37 0 0030.666 38.75l-6.372 5.1 19.424 4.856 9.712 4.856-11.13 3.71a55.557 55.557 0 00-37.43 44.849h19.424l-7.104 7.103a42.07 42.07 0 00-12.32 29.742v2.002h19.424l-2.554 3.409a42.046 42.046 0 00-7.158 35.438l19.424-9.712a42.046 42.046 0 007.157 35.438l2.553 3.409 23.737-20.497c2.444 3.597 7.464 4.879 11.416 2.244l16.32-10.882c0 3.83 2.113 7.357 5.493 9.162a10.379 10.379 0 0010.667-.515l7.59-5.054a9.701 9.701 0 0110.771 0l7.59 5.054a10.381 10.381 0 0010.668.515 10.39 10.39 0 005.492-9.162l16.321 10.882c4.01 2.675 9.021 1.281 11.416-2.244l23.735 20.497 2.555-3.41a42.055 42.055 0 007.157-35.437l19.424 9.712a42.052 42.052 0 00-7.159-35.438l-2.553-3.41h19.422v-2a42.074 42.074 0 00-12.318-29.743z" fill="#fff"/><path d="M95.16 110.255c11.62 0 21.04 9.42 21.04 21.04s-9.42 21.041-21.04 21.041-21.042-9.42-21.042-21.04 9.421-21.041 21.041-21.041M153.424 110.255c11.621 0 21.041 9.42 21.041 21.04s-9.42 21.041-21.04 21.041-21.041-9.42-21.041-21.04 9.42-21.041 21.04-21.041" fill="#a4bde3"/><path d="M187.157 140.387c-1.89-3.782-2.952-7.866-3.268-12.033-.2-2.553-.117-5.137.223-7.7 4.02-30.345-19.593-57.369-50.283-57.369h-19.005c-30.69 0-54.304 27.024-50.283 57.368.898 6.755.004 13.636-3.045 19.734a15.983 15.983 0 002.996 18.452l6.93 6.929a33.136 33.136 0 0125.28-14.98l-.015-.154c-11.236.88-20.92-8.021-20.92-19.366 0-10.727 8.698-19.424 19.424-19.424 7.187 0 13.465 3.904 16.826 9.712 3.731 6.464 3.479 14.671-.98 20.949l1.675 8.375a11.844 11.844 0 0023.23 0l1.675-8.375a19.348 19.348 0 01-3.579-11.237c0-10.732 8.701-19.424 19.424-19.424 10.771 0 19.423 8.745 19.423 19.424 0 11.502-9.908 20.308-20.967 19.36l-.015.156a33.15 33.15 0 0125.329 14.984l6.929-6.93a15.983 15.983 0 002.996-18.45" fill="#a1daf8"/><path d="M136.625 97.322h-24.62a4.857 4.857 0 000 9.712h24.62a4.856 4.856 0 100-9.712" fill="#134094"/><path d="M243.689 107.055a4.858 4.858 0 004.808-5.543 60.383 60.383 0 00-13.425-30.166 60.34 60.34 0 00-22.91-16.958c6.84-1.774 1.076.23 14.275-6.116a4.856 4.856 0 00.863-8.134l-6.372-5.099c-8.736-6.989-19.049-11.767-29.935-13.98 2.042-1.262 4.088-2.462 6.309-3.573a4.853 4.853 0 00.86-8.134C189.82 2.677 176.95-.68 163.735.372c-10.21.81-25.037 4.567-39.505 17.46C97.883-5.538 64.85-2.724 50.304 8.915a4.856 4.856 0 00.862 8.134c2.346 1.173 4.509 2.51 6.683 3.932-11.026 2.181-21.474 6.988-30.31 14.058l-6.37 5.099a4.858 4.858 0 001.857 8.502l17.125 4.282c-21.438 7.36-36.966 26.122-40.177 48.59a4.856 4.856 0 001.138 3.868c.923 1.063 2.261 1.626 3.67 1.626h7.742C-1.752 122.346.066 140.269-.074 141.046c0 2.681 2.174 4.807 4.855 4.807h10.075c-6.23 10.56-8.09 23.158-5.073 35.217a4.852 4.852 0 002.682 3.234 4.853 4.853 0 004.2-.068l11.16-5.58c-.767 19.995 10.885 31.387 11.917 33.283a4.857 4.857 0 007.06.764l20.466-17.674c3.033 1.894 6.806 2.54 10.465 1.506a62.59 62.59 0 0012.512 15.899v31.556a4.857 4.857 0 004.855 4.856h58.271a4.856 4.856 0 004.856-4.856v-31.556a62.614 62.614 0 0012.517-15.908c3.543.98 7.35.415 10.453-1.504l20.473 17.68c2.14 1.849 5.381 1.476 7.06-.763.972-1.787 12.682-13.318 11.918-33.285l11.16 5.582a4.852 4.852 0 006.88-3.166c3.018-12.06 1.16-24.612-5.072-35.17h10.074a4.856 4.856 0 004.856-4.855v-2.002c0-11.8-4.572-23.366-12.597-31.99h7.74zM69.266 120.08c-3.631-27.41 17.719-51.873 45.47-51.873h19.006c27.76 0 49.099 24.473 45.468 51.873a42.851 42.851 0 00-.317 3.484h-2.52c-3.285-9.653-12.52-16.51-23-16.51-7.66 0-14.856 3.661-19.412 9.712h-19.444c-4.553-6.05-11.751-9.712-19.414-9.712-11.725 0-21.534 8.354-23.79 19.423H69.63a42.362 42.362 0 00-.363-6.397m111.372 35.391l-3.024 3.024a38.011 38.011 0 00-9.688-7.74c5.415-4.067 9.075-10.345 9.643-17.48h2.003a36.397 36.397 0 003.154 9.35 11.112 11.112 0 01-2.088 12.846m-70.967-24.138c0 8.072-6.539 14.568-14.568 14.568-8.033 0-14.567-6.536-14.567-14.568s6.535-14.567 14.567-14.567c7.893 0 14.568 6.386 14.568 14.567m8.368 20.514a6.96 6.96 0 01-.654-1.853l-1.292-6.458a24.11 24.11 0 003.29-12.203c0-1.637-.17-3.312-.494-4.905h10.699a24.854 24.854 0 00-.494 4.905 24.12 24.12 0 003.29 12.203l-1.292 6.458a6.942 6.942 0 01-.655 1.855 6.962 6.962 0 01-6.2 3.764 6.963 6.963 0 01-6.198-3.766m34.17-5.994c-7.403-.58-13.403-6.777-13.403-14.52 0-8.164 6.657-14.567 14.568-14.567 7.84 0 14.567 6.4 14.567 14.567 0 8.536-7.357 15.237-15.733 14.52m-86.456-3.23a36.102 36.102 0 002.473-6.434h3.088c1.205 5.92 4.573 11.061 9.237 14.565a37.976 37.976 0 00-9.688 7.741l-3.024-3.025a11.11 11.11 0 01-2.086-12.846m34.207 96.51V219.66c7.62 4.499 15.873 6.848 24.28 6.848s16.659-2.35 24.279-6.848v19.473zm24.28-22.338c-16.035 0-30.37-11.106-38.077-25.107l6.161-4.108a15.226 15.226 0 005.977 5.755 15.219 15.219 0 0015.655-.754l7.594-5.058a4.831 4.831 0 015.383.003l7.587 5.053a15.213 15.213 0 0015.65.757 15.226 15.226 0 005.983-5.756l6.161 4.108c-7.697 13.986-22.027 25.107-38.075 25.107m48.15-30.063c-.472-.314 2.318 1.547-16.32-10.88a4.856 4.856 0 00-7.55 4.039 5.527 5.527 0 01-2.93 4.883 5.524 5.524 0 01-5.683-.276l-7.585-5.052a14.51 14.51 0 00-16.159-.004l-7.592 5.057a5.524 5.524 0 01-5.685.272 5.52 5.52 0 01-2.925-4.88 4.856 4.856 0 00-7.55-4.04c-17.753 11.836-16.87 11.464-18.172 11.464-1.755 0-3.415-1.37-3.415-3.404 0-14.782 11.41-27.106 26.161-28.217 4.51-.346 9.108.42 13.384 2.214a16.627 16.627 0 0013.87 7.415 16.626 16.626 0 0013.872-7.415c4.265-1.787 8.85-2.555 13.345-2.218 14.83 1.104 26.2 13.477 26.2 28.222 0 2.728-3.005 4.328-5.266 2.82m66.337-50.544h-14.456a4.856 4.856 0 00-3.885 7.768l2.556 3.41c5.501 7.335 8.053 16.276 7.334 25.241l-13.545-6.772a4.855 4.855 0 00-6.88 5.523c2.653 10.612.547 21.703-5.777 30.584l-17.115-14.78c.265-1.051.41-2.14.41-3.25 0-5.014-.975-9.909-2.897-14.547-.382-.923-.81-1.83-1.266-2.724l4.304-4.303a20.81 20.81 0 003.906-24.055c-1.477-2.959-2.384-6.204-2.713-9.657.002-.07.01-.138.01-.207 0-.335-.034-.661-.1-.976a32.289 32.289 0 01.227-6.088c4.401-33.218-21.47-62.86-55.097-62.86h-19.005c-33.52 0-59.515 29.528-55.097 62.863.809 6.084-.082 11.936-2.574 16.92a20.812 20.812 0 003.906 24.06l4.297 4.297a37.896 37.896 0 00-4.156 17.276c0 1.11.144 2.199.41 3.25l-17.116 14.781c-6.324-8.88-8.43-19.971-5.776-30.584a4.854 4.854 0 00-6.881-5.523l-13.545 6.774c-1.36-16.957 8.97-26.945 9.89-28.653a4.855 4.855 0 00-3.886-7.768H9.752c1.435-18.25 14.453-26.207 17.889-30.558a4.854 4.854 0 00-3.435-8.29l-13.511.001c4.257-16.587 16.523-29.878 33.055-35.386l11.129-3.71a4.857 4.857 0 00.636-8.95c-13.33-6.61-6.968-4.234-20.592-7.695 10.464-7.905 23.358-12.241 36.5-12.241h1.343a4.857 4.857 0 002.174-9.199c-3.242-1.62-6.13-3.55-9.187-5.594-.872-.583-1.753-1.17-2.65-1.759 13.32-5.125 37.45-5.125 57.704 15.13a4.856 4.856 0 006.866 0c13.43-13.43 27.445-17.14 36.836-17.886 7.496-.597 14.95.532 20.928 3.026-.883.549-1.75 1.098-2.61 1.642-3.082 1.95-5.993 3.793-9.287 5.441a4.856 4.856 0 002.172 9.199h1.345c22.774 0 37.983 13.466 38.256 13.618l-2.449 1.224-18.906 4.727a4.855 4.855 0 00-.357 9.317l11.13 3.71c16.53 5.508 28.797 18.8 33.054 35.386h-13.513a4.858 4.858 0 00-3.435 8.29l7.105 7.104c6.248 6.25 10.092 14.67 10.783 23.453" fill="#134094"/><path d="M104.892 87.589h38.847a4.857 4.857 0 000-9.712h-38.847a4.856 4.856 0 100 9.712" fill="#134094"/></svg>