<svg viewBox="0 0 213.22 266.52" xmlns="http://www.w3.org/2000/svg"><path d="M106.525 26.845a4.442 4.442 0 01-4.441-4.441V4.636c0-2.452 1.99-4.442 4.441-4.442s4.441 1.99 4.441 4.442v17.768a4.439 4.439 0 01-4.44 4.44M64.393 38.178a4.439 4.439 0 01-3.85-2.221l-8.885-15.383a4.44 4.44 0 017.662-4.49c.009.017.018.036.032.05l8.883 15.381a4.442 4.442 0 01-3.842 6.663M33.46 68.977a4.428 4.428 0 01-2.221-.594l-15.382-8.884a4.443 4.443 0 114.442-7.693l15.383 8.883a4.443 4.443 0 01-2.222 8.288M22.127 111.243H4.36A4.445 4.445 0 01-.083 106.8c0-2.45 1.99-4.441 4.443-4.441h17.767a4.44 4.44 0 110 8.884M18.127 162.308a4.443 4.443 0 01-2.221-8.289l15.382-8.884a4.44 4.44 0 016.077 1.587 4.44 4.44 0 01-1.585 6.076c-.018.01-.036.017-.053.03l-15.382 8.884a4.394 4.394 0 01-2.218.596M195.056 162.308a4.442 4.442 0 01-2.221-.594l-15.382-8.884a4.444 4.444 0 014.393-7.725c.017.009.036.018.053.032l15.382 8.883a4.443 4.443 0 01-2.225 8.288M208.79 111.243h-17.768a4.445 4.445 0 01-4.443-4.443c0-2.45 1.99-4.441 4.443-4.441h17.767a4.44 4.44 0 110 8.884M179.723 68.977a4.443 4.443 0 01-2.221-8.289l15.382-8.884c2.115-1.238 4.839-.528 6.077 1.587s.528 4.837-1.585 6.076c-.019.01-.036.017-.05.03l-15.381 8.884a4.42 4.42 0 01-2.222.596M148.79 38.178a4.443 4.443 0 01-3.842-6.663l8.884-15.382a4.443 4.443 0 117.693 4.445l-8.884 15.383a4.439 4.439 0 01-3.85 2.217M128.791 88.977c-9.812 0-17.767 7.955-17.767 17.767v8.884h-8.884v-8.884c0-9.812-7.956-17.767-17.768-17.767-9.813 0-17.767 7.955-17.767 17.767 0 9.813 7.956 17.768 17.767 17.768h8.884v48.861c0 2.452 1.99 4.443 4.441 4.443s4.443-1.99 4.443-4.443v-48.861h8.884v48.861c0 2.452 1.989 4.443 4.44 4.443s4.443-1.99 4.443-4.443v-48.861h8.884c9.812 0 17.768-7.955 17.768-17.768 0-9.812-7.956-17.767-17.768-17.767M75.49 106.744a8.881 8.881 0 018.883-8.884 8.882 8.882 0 018.884 8.884v8.884h-8.884a8.884 8.884 0 01-8.883-8.884m53.302 8.884h-8.884v-8.884c0-4.908 3.976-8.884 8.884-8.884s8.884 3.976 8.884 8.884-3.975 8.884-8.884 8.884" fill="#fff"/><path d="M109.992 35.778c-39.205-1.884-72.515 28.37-74.398 67.58a71.068 71.068 0 0025.896 58.344 13.24 13.24 0 015.073 10.158v10.417a13.322 13.322 0 008.884 12.508v5.258a13.263 13.263 0 003.464 8.884 13.126 13.126 0 000 17.769c-4.94 5.414-4.553 13.805.861 18.743a13.277 13.277 0 009 3.466 4.33 4.33 0 003.65-6.827 4.768 4.768 0 00-.497-.77 4.552 4.552 0 00-1.234-.807 4.246 4.246 0 00-.39-.173 4.684 4.684 0 00-1.4-.28c-.045 0-.085-.027-.129-.027a4.443 4.443 0 01-4.441-4.443c0-2.45 1.99-4.44 4.441-4.44h17.768c2.452 0 4.442-1.99 4.442-4.442s-1.99-4.443-4.442-4.443H88.772a4.442 4.442 0 010-8.883h17.768c2.452 0 4.442-1.99 4.442-4.442s-1.99-4.442-4.442-4.442H88.772a4.442 4.442 0 01-4.441-4.441v-4.443h22.209c2.452 0 4.442-1.99 4.442-4.441s-1.99-4.443-4.442-4.443H79.888a4.442 4.442 0 01-4.44-4.441v-10.416a22.08 22.08 0 00-8.33-17.035c-26.531-21.805-30.366-60.996-8.56-87.529a62.19 62.19 0 0151.011-22.631c32.822 1.954 58.599 28.85 59.159 61.72a61.827 61.827 0 01-23.077 48.697 22.029 22.029 0 00-8.017 17.293v9.901a4.442 4.442 0 01-4.442 4.441h-13.326a4.445 4.445 0 00-4.442 4.443c0 2.45 1.99 4.441 4.442 4.441h8.884v4.441a4.445 4.445 0 01-4.443 4.443h-4.44a4.444 4.444 0 00-4.443 4.441 4.445 4.445 0 004.442 4.443h4.441c2.452 0 4.443 1.989 4.443 4.44s-1.99 4.443-4.443 4.443h-4.44c-2.453 0-4.443 1.99-4.443 4.442s1.99 4.442 4.442 4.442h4.441c2.452 0 4.443 1.99 4.443 4.441s-1.99 4.443-4.443 4.443H102.1c-2.452 0-4.443 1.99-4.443 4.441s1.99 4.441 4.443 4.441h17.007c-2.452 6.939-10.065 10.577-17.003 8.125a13.35 13.35 0 01-5.522-3.714 4.443 4.443 0 00-6.635 5.908c8.123 9.156 22.128 9.99 31.283 1.866a22.143 22.143 0 007.142-12.886c6.957-2.173 10.835-9.577 8.657-16.533a13.242 13.242 0 00-2.86-4.976 13.121 13.121 0 000-17.767 13.264 13.264 0 003.466-8.884v-5.257a13.323 13.323 0 008.883-12.508v-9.901c-.058-3.99 1.67-7.8 4.712-10.38a70.636 70.636 0 0026.382-55.676c-.64-37.57-30.107-68.313-67.62-70.542" fill="#134094"/></svg>